# xmcd
#
# Track frame offsets:
#	150
#	19776
#	34667
#	53034
#	67143
#	91636
#	107271
#	118821
#	135003
#	159441
#	174180
#	194583
#	219493
#	237350
#
# Disc length: 3362 seconds
#
# Revision: 1
# Processed by: cddbd v1.4PL0 Copyright (c) Steve Scherf et al.
# Submitted via: audiograbber 1.81.03
#
DISCID=ae0d200e
DTITLE=Various Artist - Acoustic Roots and Blues Heritage Festival (2000)
DYEAR=2000
DGENRE=Blues
TTITLE0=Kinzel and Jones - Saddle Up My Pony and 44 Long
TTITLE1=Phantoms of Soul - Black Bottom
TTITLE2=The Blues Police - Harold's Request
TTITLE3=Megan James - You Moved Too Soon
TTITLE4=Bill Rhoades and Alan Hager - Death Letter Blues
TTITLE5=Joan Jones - If I Had Known
TTITLE6=Kinzel and Jones - Just Your Fool
TTITLE7=Terry Robb - Depot Blues
TTITLE8=The Blues Police - St James Infirmary
TTITLE9=Bill Rhoades and Alan Hager - Just Keep Lovin' Her
TTITLE10=Phantoms of Soul - Mailman Blues
TTITLE11=Joan Jones - How Long Baby
TTITLE12=Terry Robb - Hesitation Blues
TTITLE13=Megan James - Long Distance Call
EXTD=Cascade Blues Association
EXTT0=
EXTT1=
EXTT2=
EXTT3=
EXTT4=
EXTT5=
EXTT6=
EXTT7=
EXTT8=
EXTT9=
EXTT10=
EXTT11=
EXTT12=
EXTT13=
PLAYORDER=
